<svg width="85" height="19" viewBox="0 0 85 19" fill="none" xmlns="http://www.w3.org/2000/svg">
<path d="M11.9139 4.68C11.9139 5.41667 11.6539 6.05367 11.1339 6.591C10.6139 7.11967 9.85555 7.501 8.85888 7.735C9.39622 7.88233 9.80355 8.125 10.0809 8.463C10.3582 8.79233 10.4969 9.17367 10.4969 9.607C10.4969 10.2917 10.2802 10.8853 9.84688 11.388C9.42222 11.8907 8.79822 12.2807 7.97488 12.558C7.15155 12.8267 6.15922 12.961 4.99788 12.961C4.56455 12.961 4.21788 12.948 3.95788 12.922C3.94922 13.1647 3.84522 13.3467 3.64588 13.468C3.44655 13.5893 3.19088 13.65 2.87888 13.65C2.56688 13.65 2.35022 13.5807 2.22888 13.442C2.11622 13.3033 2.06855 13.0997 2.08588 12.831C2.16388 11.6177 2.31555 10.348 2.54088 9.022C2.76622 7.68733 3.05222 6.40033 3.39888 5.161C3.45955 4.94433 3.58088 4.79267 3.76288 4.706C3.94488 4.61933 4.18322 4.576 4.47788 4.576C5.00655 4.576 5.27088 4.72333 5.27088 5.018C5.27088 5.13933 5.24488 5.278 5.19288 5.434C4.96755 6.11 4.74222 7.02867 4.51688 8.19C4.29155 9.34267 4.13122 10.4433 4.03588 11.492C4.45188 11.5267 4.78988 11.544 5.04988 11.544C6.26322 11.544 7.15155 11.3707 7.71488 11.024C8.28688 10.6687 8.57288 10.218 8.57288 9.672C8.57288 9.29067 8.40822 8.97 8.07888 8.71C7.75822 8.45 7.21655 8.307 6.45388 8.281C6.28055 8.27233 6.15922 8.229 6.08988 8.151C6.02055 8.073 5.98588 7.94733 5.98588 7.774C5.98588 7.52267 6.03788 7.319 6.14188 7.163C6.24588 7.007 6.43655 6.92467 6.71388 6.916C7.32922 6.89867 7.88388 6.80767 8.37788 6.643C8.88055 6.47833 9.27488 6.24867 9.56088 5.954C9.84688 5.65067 9.98988 5.29967 9.98988 4.901C9.98988 4.39833 9.74288 4.004 9.24888 3.718C8.75488 3.42333 7.99655 3.276 6.97388 3.276C6.04655 3.276 5.14955 3.39733 4.28288 3.64C3.41622 3.874 2.67955 4.173 2.07288 4.537C1.79555 4.70167 1.56155 4.784 1.37088 4.784C1.21488 4.784 1.09355 4.732 1.00688 4.628C0.928883 4.51533 0.889883 4.37667 0.889883 4.212C0.889883 3.99533 0.933216 3.809 1.01988 3.653C1.11522 3.497 1.33622 3.31933 1.68288 3.12C2.41088 2.704 3.26455 2.379 4.24388 2.145C5.22322 1.911 6.22422 1.794 7.24688 1.794C8.81555 1.794 9.98555 2.05833 10.7569 2.587C11.5282 3.11567 11.9139 3.81333 11.9139 4.68ZM13.0789 13.065C12.6889 13.065 12.3682 12.8873 12.1169 12.532C11.8742 12.168 11.7529 11.7173 11.7529 11.18C11.7529 10.53 11.7962 9.93633 11.8829 9.399C11.9696 8.853 12.1126 8.27667 12.3119 7.67C12.3986 7.41 12.5199 7.22367 12.6759 7.111C12.8319 6.99833 13.0789 6.942 13.4169 6.942C13.6076 6.942 13.7376 6.97233 13.8069 7.033C13.8849 7.09367 13.9239 7.18467 13.9239 7.306C13.9239 7.37533 13.8762 7.60933 13.7809 8.008C13.6942 8.32867 13.6249 8.619 13.5729 8.879C13.3996 9.789 13.3129 10.3957 13.3129 10.699C13.3129 10.881 13.3346 11.011 13.3779 11.089C13.4212 11.1583 13.4906 11.193 13.5859 11.193C13.7159 11.193 13.8762 11.063 14.0669 10.803C14.2662 10.543 14.4742 10.1487 14.6909 9.62C14.9162 9.09133 15.1329 8.44133 15.3409 7.67C15.4102 7.41 15.5142 7.22367 15.6529 7.111C15.8002 6.99833 16.0169 6.942 16.3029 6.942C16.5022 6.942 16.6409 6.968 16.7189 7.02C16.7969 7.06333 16.8359 7.15 16.8359 7.28C16.8359 7.49667 16.7276 8.09033 16.5109 9.061C16.2682 10.1703 16.1469 10.855 16.1469 11.115C16.1469 11.2797 16.1816 11.4097 16.2509 11.505C16.3202 11.5917 16.4112 11.635 16.5239 11.635C16.6972 11.635 16.9009 11.531 17.1349 11.323C17.3776 11.1063 17.6982 10.7597 18.0969 10.283C18.2009 10.1617 18.3179 10.101 18.4479 10.101C18.5606 10.101 18.6472 10.153 18.7079 10.257C18.7772 10.361 18.8119 10.504 18.8119 10.686C18.8119 11.0327 18.7296 11.3013 18.5649 11.492C18.1922 11.9513 17.7892 12.3283 17.3559 12.623C16.9312 12.9177 16.4459 13.065 15.8999 13.065C15.4839 13.065 15.1762 12.9047 14.9769 12.584C14.7862 12.2633 14.6909 11.8127 14.6909 11.232C14.5436 11.8213 14.3226 12.2763 14.0279 12.597C13.7332 12.909 13.4169 13.065 13.0789 13.065ZM22.3078 6.942C22.5071 6.942 22.6458 6.968 22.7238 7.02C22.8018 7.072 22.8408 7.15867 22.8408 7.28C22.8408 7.488 22.7281 8.229 22.5028 9.503C22.3035 10.725 22.1865 11.4487 22.1518 11.674C21.8311 13.9013 21.3891 15.665 20.8258 16.965C20.2625 18.265 19.5128 18.915 18.5768 18.915C18.1348 18.915 17.7751 18.7763 17.4978 18.499C17.2205 18.2303 17.0818 17.875 17.0818 17.433C17.0818 17.0257 17.1728 16.6097 17.3548 16.185C17.5455 15.7603 17.8921 15.2707 18.3948 14.716C18.9061 14.17 19.6255 13.5417 20.5528 12.831L20.5918 12.532C20.6525 12.2113 20.7218 11.752 20.7998 11.154C20.6265 11.778 20.3838 12.2547 20.0718 12.584C19.7598 12.9047 19.4305 13.065 19.0838 13.065C18.6938 13.065 18.3731 12.8873 18.1218 12.532C17.8791 12.168 17.7578 11.7173 17.7578 11.18C17.7578 10.53 17.8011 9.93633 17.8878 9.399C17.9745 8.853 18.1175 8.27667 18.3168 7.67C18.4035 7.41 18.5248 7.22367 18.6808 7.111C18.8368 6.99833 19.0838 6.942 19.4218 6.942C19.6125 6.942 19.7425 6.97233 19.8118 7.033C19.8898 7.09367 19.9288 7.18467 19.9288 7.306C19.9288 7.37533 19.8811 7.60933 19.7858 8.008C19.6991 8.32867 19.6298 8.619 19.5778 8.879C19.5085 9.23433 19.4478 9.57667 19.3958 9.906C19.3438 10.2267 19.3178 10.491 19.3178 10.699C19.3178 11.0283 19.4088 11.193 19.5908 11.193C19.7208 11.193 19.8811 11.063 20.0718 10.803C20.2711 10.543 20.4791 10.1487 20.6958 9.62C20.9211 9.09133 21.1378 8.44133 21.3458 7.67C21.4151 7.41 21.5191 7.22367 21.6578 7.111C21.8051 6.99833 22.0218 6.942 22.3078 6.942ZM18.7198 17.654C18.9365 17.654 19.1791 17.4027 19.4478 16.9C19.7165 16.3973 19.9851 15.561 20.2538 14.391C19.5865 14.9543 19.1011 15.4657 18.7978 15.925C18.5031 16.393 18.3558 16.8003 18.3558 17.147C18.3558 17.2943 18.3818 17.4157 18.4338 17.511C18.4945 17.6063 18.5898 17.654 18.7198 17.654ZM27.9611 13.065C27.6317 13.065 27.3977 12.8917 27.2591 12.545C27.1291 12.1983 27.0641 11.6437 27.0641 10.881C27.0641 9.75433 27.2244 8.684 27.5451 7.67C27.6231 7.41867 27.7487 7.23667 27.9221 7.124C28.1041 7.00267 28.3554 6.942 28.6761 6.942C28.8494 6.942 28.9707 6.96367 29.0401 7.007C29.1094 7.05033 29.1441 7.13267 29.1441 7.254C29.1441 7.39267 29.0791 7.70467 28.9491 8.19C28.8624 8.53667 28.7931 8.84 28.7411 9.1C28.6891 9.35133 28.6457 9.66767 28.6111 10.049C28.8451 9.373 29.1224 8.801 29.4431 8.333C29.7724 7.865 30.1061 7.51833 30.4441 7.293C30.7907 7.059 31.1157 6.942 31.4191 6.942C31.7224 6.942 31.9347 7.01133 32.0561 7.15C32.1861 7.28867 32.2511 7.501 32.2511 7.787C32.2511 8.06433 32.1687 8.567 32.0041 9.295C31.9347 9.607 31.8871 9.841 31.8611 9.997C32.2944 8.931 32.7754 8.15533 33.3041 7.67C33.8327 7.18467 34.3267 6.942 34.7861 6.942C35.3494 6.942 35.6311 7.22367 35.6311 7.787C35.6311 8.125 35.5357 8.736 35.3451 9.62C35.1804 10.374 35.0981 10.8723 35.0981 11.115C35.0981 11.4617 35.2237 11.635 35.4751 11.635C35.6484 11.635 35.8521 11.531 36.0861 11.323C36.3287 11.1063 36.6494 10.7597 37.0481 10.283C37.1521 10.1617 37.2691 10.101 37.3991 10.101C37.5117 10.101 37.5984 10.153 37.6591 10.257C37.7284 10.361 37.7631 10.504 37.7631 10.686C37.7631 11.0327 37.6807 11.3013 37.5161 11.492C37.1434 11.9513 36.7404 12.3283 36.3071 12.623C35.8824 12.9177 35.3971 13.065 34.8511 13.065C34.4091 13.065 34.0754 12.9393 33.8501 12.688C33.6247 12.428 33.5121 12.0553 33.5121 11.57C33.5121 11.3273 33.5727 10.894 33.6941 10.27C33.8067 9.724 33.8631 9.347 33.8631 9.139C33.8631 9.00033 33.8154 8.931 33.7201 8.931C33.6074 8.931 33.4471 9.07833 33.2391 9.373C33.0311 9.659 32.8231 10.0403 32.6151 10.517C32.4071 10.9937 32.2381 11.4963 32.1081 12.025C32.0127 12.441 31.9001 12.7183 31.7701 12.857C31.6487 12.9957 31.4494 13.065 31.1721 13.065C30.8861 13.065 30.6694 12.9307 30.5221 12.662C30.3834 12.3847 30.3141 12.051 30.3141 11.661C30.3141 11.3317 30.3574 10.855 30.4441 10.231C30.5134 9.67633 30.5481 9.31233 30.5481 9.139C30.5481 9.00033 30.5004 8.931 30.4051 8.931C30.2751 8.931 30.1104 9.087 29.9111 9.399C29.7117 9.711 29.5167 10.1097 29.3261 10.595C29.1441 11.0803 28.9967 11.557 28.8841 12.025C28.7887 12.4323 28.6761 12.7097 28.5461 12.857C28.4247 12.9957 28.2297 13.065 27.9611 13.065ZM41.3659 10.491C41.4786 10.491 41.5652 10.543 41.6259 10.647C41.6952 10.751 41.7299 10.894 41.7299 11.076C41.7299 11.388 41.6562 11.6567 41.5089 11.882C41.2662 12.2547 40.9456 12.545 40.5469 12.753C40.1569 12.961 39.6889 13.065 39.1429 13.065C38.3109 13.065 37.6652 12.818 37.2059 12.324C36.7466 11.8213 36.5169 11.1453 36.5169 10.296C36.5169 9.698 36.6426 9.14333 36.8939 8.632C37.1452 8.112 37.4919 7.70033 37.9339 7.397C38.3846 7.09367 38.8916 6.942 39.4549 6.942C39.9576 6.942 40.3606 7.09367 40.6639 7.397C40.9672 7.69167 41.1189 8.09467 41.1189 8.606C41.1189 9.204 40.9022 9.71967 40.4689 10.153C40.0442 10.5777 39.3162 10.9157 38.2849 11.167C38.4929 11.5657 38.8439 11.765 39.3379 11.765C39.6932 11.765 39.9836 11.6827 40.2089 11.518C40.4429 11.3533 40.7116 11.076 41.0149 10.686C41.1189 10.556 41.2359 10.491 41.3659 10.491ZM39.2339 8.216C38.9132 8.216 38.6402 8.40233 38.4149 8.775C38.1982 9.14767 38.0899 9.59833 38.0899 10.127V10.153C38.6012 10.0317 39.0042 9.84967 39.2989 9.607C39.5936 9.36433 39.7409 9.08267 39.7409 8.762C39.7409 8.59733 39.6932 8.46733 39.5979 8.372C39.5112 8.268 39.3899 8.216 39.2339 8.216ZM46.992 13.065C46.498 13.065 46.095 12.87 45.783 12.48C45.4797 12.09 45.328 11.5787 45.328 10.946C45.328 10.2527 45.4884 9.59833 45.809 8.983C46.1297 8.359 46.5544 7.86067 47.083 7.488C47.6204 7.10667 48.188 6.916 48.786 6.916C48.9767 6.916 49.1024 6.955 49.163 7.033C49.2324 7.10233 49.2887 7.23233 49.332 7.423C49.4967 7.38833 49.6787 7.371 49.878 7.371C50.086 7.371 50.2464 7.423 50.359 7.527C50.4717 7.631 50.528 7.77833 50.528 7.969C50.528 8.16833 50.4847 8.515 50.398 9.009C50.3027 9.53767 50.229 10.0447 50.177 10.53C50.125 11.0067 50.099 11.544 50.099 12.142C50.099 12.4713 50.0297 12.7097 49.891 12.857C49.761 12.9957 49.5444 13.065 49.241 13.065C48.9464 13.065 48.7254 12.9957 48.578 12.857C48.4394 12.7097 48.37 12.4757 48.37 12.155L48.383 11.947C48.1144 12.6923 47.6507 13.065 46.992 13.065ZM47.499 11.752C47.7417 11.752 47.9627 11.583 48.162 11.245C48.3614 10.907 48.539 10.3047 48.695 9.438L48.942 8.125C48.5867 8.13367 48.2574 8.27233 47.954 8.541C47.6507 8.801 47.408 9.14767 47.226 9.581C47.044 10.0143 46.953 10.4737 46.953 10.959C46.953 11.219 47.0007 11.4183 47.096 11.557C47.2 11.687 47.3344 11.752 47.499 11.752ZM57.3746 13.065C56.5252 13.065 55.8622 12.8267 55.3856 12.35C54.9176 11.8647 54.6836 11.2277 54.6836 10.439C54.6836 9.737 54.8222 9.12167 55.0996 8.593C55.3769 8.06433 55.7366 7.657 56.1786 7.371C56.6206 7.085 57.0842 6.942 57.5696 6.942C58.0462 6.942 58.4146 7.085 58.6746 7.371C58.9432 7.64833 59.0776 8.008 59.0776 8.45C59.0776 8.814 58.9952 9.12167 58.8306 9.373C58.6746 9.62433 58.4666 9.75 58.2066 9.75C58.0419 9.75 57.9076 9.711 57.8036 9.633C57.7082 9.555 57.6606 9.44667 57.6606 9.308C57.6606 9.24733 57.6692 9.178 57.6866 9.1C57.7039 9.022 57.7169 8.96567 57.7256 8.931C57.7689 8.801 57.7906 8.67967 57.7906 8.567C57.7906 8.45433 57.7602 8.36767 57.6996 8.307C57.6476 8.24633 57.5696 8.216 57.4656 8.216C57.2662 8.216 57.0799 8.307 56.9066 8.489C56.7332 8.66233 56.5946 8.90067 56.4906 9.204C56.3866 9.50733 56.3346 9.841 56.3346 10.205C56.3346 11.2103 56.7722 11.713 57.6476 11.713C58.0029 11.713 58.3842 11.596 58.7916 11.362C59.2076 11.1193 59.6149 10.7597 60.0136 10.283C60.1176 10.1617 60.2346 10.101 60.3646 10.101C60.4772 10.101 60.5639 10.153 60.6246 10.257C60.6939 10.361 60.7286 10.504 60.7286 10.686C60.7286 11.0153 60.6462 11.284 60.4816 11.492C60.0742 11.9947 59.5846 12.3847 59.0126 12.662C58.4492 12.9307 57.9032 13.065 57.3746 13.065ZM66.3077 9.009C66.4204 9.009 66.507 9.06533 66.5677 9.178C66.6284 9.29067 66.6587 9.43367 66.6587 9.607C66.6587 10.023 66.533 10.27 66.2817 10.348C65.7617 10.53 65.1897 10.634 64.5657 10.66C64.401 11.388 64.076 11.973 63.5907 12.415C63.1054 12.8483 62.555 13.065 61.9397 13.065C61.4197 13.065 60.9734 12.9393 60.6007 12.688C60.2367 12.4367 59.9594 12.103 59.7687 11.687C59.578 11.271 59.4827 10.8203 59.4827 10.335C59.4827 9.67633 59.6084 9.09133 59.8597 8.58C60.111 8.06 60.4577 7.657 60.8997 7.371C61.3417 7.07633 61.8314 6.929 62.3687 6.929C63.0274 6.929 63.556 7.15867 63.9547 7.618C64.362 8.06867 64.6004 8.62767 64.6697 9.295C65.077 9.269 65.5624 9.18233 66.1257 9.035C66.195 9.01767 66.2557 9.009 66.3077 9.009ZM62.0437 11.687C62.321 11.687 62.5594 11.5743 62.7587 11.349C62.9667 11.1237 63.1054 10.7987 63.1747 10.374C62.906 10.192 62.698 9.95367 62.5507 9.659C62.412 9.36433 62.3427 9.05233 62.3427 8.723C62.3427 8.58433 62.3557 8.44567 62.3817 8.307H62.3167C61.97 8.307 61.6797 8.476 61.4457 8.814C61.2204 9.14333 61.1077 9.61133 61.1077 10.218C61.1077 10.6947 61.1987 11.0587 61.3807 11.31C61.5714 11.5613 61.7924 11.687 62.0437 11.687ZM74.7989 9.36C75.0416 9.36 75.1629 9.542 75.1629 9.906C75.1629 10.5993 74.6083 10.946 73.4989 10.946C73.4556 10.946 73.2129 10.933 72.7709 10.907C72.8663 11.3663 72.9399 11.8907 72.9919 12.48C73.0526 13.0607 73.0829 13.6413 73.0829 14.222C73.0829 15.158 72.9226 15.873 72.6019 16.367C72.2899 16.861 71.8869 17.108 71.3929 17.108C70.7689 17.108 70.3226 16.666 70.0539 15.782C69.7939 14.898 69.6639 13.5633 69.6639 11.778C69.6639 11.3187 69.6769 10.855 69.7029 10.387C69.6249 10.3957 69.4993 10.4 69.3259 10.4C69.0919 10.4 68.9013 10.4043 68.7539 10.413C68.8406 11.0543 68.9056 11.6697 68.9489 12.259C69.0009 12.8483 69.0269 13.5027 69.0269 14.222C69.0269 15.158 68.8666 15.873 68.5459 16.367C68.2339 16.861 67.8309 17.108 67.3369 17.108C66.7129 17.108 66.2666 16.666 65.9979 15.782C65.7379 14.898 65.6079 13.5633 65.6079 11.778C65.6079 10.1053 65.7726 8.41533 66.1019 6.708C66.4399 4.992 66.9079 3.575 67.5059 2.457C68.1039 1.339 68.7799 0.779999 69.5339 0.779999C69.9239 0.779999 70.2273 0.944666 70.4439 1.274C70.6693 1.59467 70.7819 2.05833 70.7819 2.665C70.7819 3.60967 70.5263 4.66267 70.0149 5.824C69.5123 6.97667 68.6196 8.19 67.3369 9.464C67.2589 10.2267 67.2199 10.9677 67.2199 11.687C67.2199 12.5797 67.2503 13.494 67.3109 14.43C67.3716 15.3747 67.4713 15.847 67.6099 15.847C67.7399 15.847 67.8439 15.7387 67.9219 15.522C67.9999 15.3053 68.0389 14.963 68.0389 14.495C68.0389 13.6457 68.0043 12.896 67.9349 12.246C67.8743 11.5873 67.8006 11.0587 67.7139 10.66C67.6966 10.5993 67.6879 10.5083 67.6879 10.387C67.6879 10.0143 67.8353 9.70667 68.1299 9.464C68.4333 9.22133 68.8319 9.09567 69.3259 9.087H69.6379H69.8199C69.9846 7.64833 70.2533 6.29633 70.6259 5.031C71.0073 3.757 71.4666 2.73 72.0039 1.95C72.5499 1.17 73.1349 0.779999 73.7589 0.779999C74.1663 0.779999 74.4826 0.961999 74.7079 1.326C74.9419 1.69 75.0589 2.17967 75.0589 2.795C75.0589 3.55767 74.9159 4.41133 74.6299 5.356C74.3439 6.30067 73.9193 7.189 73.3559 8.021C72.8013 8.84433 72.1383 9.464 71.3669 9.88C71.3063 10.4607 71.2759 11.063 71.2759 11.687C71.2759 12.5797 71.3063 13.494 71.3669 14.43C71.4276 15.3747 71.5273 15.847 71.6659 15.847C71.7959 15.847 71.8999 15.7387 71.9779 15.522C72.0559 15.3053 72.0949 14.963 72.0949 14.495C72.0949 13.819 72.0603 13.1733 71.9909 12.558C71.9216 11.9427 71.8479 11.44 71.7699 11.05C71.7526 10.9807 71.7439 10.8853 71.7439 10.764C71.7439 10.4087 71.8653 10.1097 72.1079 9.867C72.3506 9.61567 72.6279 9.49 72.9399 9.49C73.2346 9.49 73.5033 9.48133 73.7459 9.464C73.9973 9.438 74.1576 9.42067 74.2269 9.412C74.5216 9.37733 74.7123 9.36 74.7989 9.36ZM69.2609 2.067C69.1049 2.067 68.9186 2.33133 68.7019 2.86C68.4939 3.38867 68.2859 4.09067 68.0779 4.966C67.8699 5.84133 67.6923 6.773 67.5449 7.761C68.2036 6.981 68.6976 6.136 69.0269 5.226C69.3649 4.30733 69.5339 3.47533 69.5339 2.73C69.5339 2.51333 69.5079 2.34867 69.4559 2.236C69.4039 2.12333 69.3389 2.067 69.2609 2.067ZM73.4859 2.067C73.3126 2.067 73.1003 2.37033 72.8489 2.977C72.6063 3.58367 72.3636 4.37667 72.1209 5.356C71.8869 6.33533 71.6919 7.34933 71.5359 8.398C72.0299 8.008 72.4459 7.488 72.7839 6.838C73.1306 6.188 73.3863 5.50767 73.5509 4.797C73.7243 4.08633 73.8109 3.44067 73.8109 2.86C73.8109 2.33133 73.7026 2.067 73.4859 2.067ZM79.9738 10.101C80.0864 10.101 80.1731 10.153 80.2338 10.257C80.3031 10.361 80.3378 10.504 80.3378 10.686C80.3378 11.0327 80.2554 11.3013 80.0908 11.492C79.7701 11.882 79.3151 12.2417 78.7258 12.571C78.1451 12.9003 77.5211 13.065 76.8538 13.065C75.9438 13.065 75.2374 12.818 74.7348 12.324C74.2321 11.83 73.9808 11.154 73.9808 10.296C73.9808 9.698 74.1064 9.14333 74.3578 8.632C74.6091 8.112 74.9558 7.70033 75.3978 7.397C75.8484 7.09367 76.3554 6.942 76.9188 6.942C77.4214 6.942 77.8244 7.09367 78.1278 7.397C78.4311 7.69167 78.5828 8.09467 78.5828 8.606C78.5828 9.204 78.3661 9.71967 77.9328 10.153C77.5081 10.5777 76.7844 10.9157 75.7618 11.167C75.9784 11.5657 76.3901 11.765 76.9968 11.765C77.3868 11.765 77.8288 11.6307 78.3228 11.362C78.8254 11.0847 79.2588 10.725 79.6228 10.283C79.7268 10.1617 79.8438 10.101 79.9738 10.101ZM76.6978 8.216C76.3771 8.216 76.1041 8.40233 75.8788 8.775C75.6621 9.14767 75.5538 9.59833 75.5538 10.127V10.153C76.0651 10.0317 76.4681 9.84967 76.7628 9.607C77.0574 9.36433 77.2048 9.08267 77.2048 8.762C77.2048 8.59733 77.1571 8.46733 77.0618 8.372C76.9751 8.268 76.8538 8.216 76.6978 8.216ZM83.9333 10.491C84.0459 10.491 84.1326 10.543 84.1933 10.647C84.2626 10.751 84.2973 10.894 84.2973 11.076C84.2973 11.388 84.2236 11.6567 84.0763 11.882C83.8336 12.2547 83.5129 12.545 83.1143 12.753C82.7243 12.961 82.2563 13.065 81.7103 13.065C80.8783 13.065 80.2326 12.818 79.7733 12.324C79.3139 11.8213 79.0843 11.1453 79.0843 10.296C79.0843 9.698 79.2099 9.14333 79.4613 8.632C79.7126 8.112 80.0593 7.70033 80.5013 7.397C80.9519 7.09367 81.4589 6.942 82.0223 6.942C82.5249 6.942 82.9279 7.09367 83.2313 7.397C83.5346 7.69167 83.6863 8.09467 83.6863 8.606C83.6863 9.204 83.4696 9.71967 83.0363 10.153C82.6116 10.5777 81.8836 10.9157 80.8523 11.167C81.0603 11.5657 81.4113 11.765 81.9053 11.765C82.2606 11.765 82.5509 11.6827 82.7763 11.518C83.0103 11.3533 83.2789 11.076 83.5823 10.686C83.6863 10.556 83.8033 10.491 83.9333 10.491ZM81.8013 8.216C81.4806 8.216 81.2076 8.40233 80.9823 8.775C80.7656 9.14767 80.6573 9.59833 80.6573 10.127V10.153C81.1686 10.0317 81.5716 9.84967 81.8663 9.607C82.1609 9.36433 82.3083 9.08267 82.3083 8.762C82.3083 8.59733 82.2606 8.46733 82.1653 8.372C82.0786 8.268 81.9573 8.216 81.8013 8.216Z" fill="#4C4C4C"/>
</svg>
