<svg width="22" height="24" viewBox="0 0 22 24" fill="none" xmlns="http://www.w3.org/2000/svg">
<g clip-path="url(#clip0)">
<path d="M8.53153 13.3999C8.22302 13.3322 7.99576 13.0617 8.00139 12.7374L8.20659 2.37604L10.0454 2.84304L9.83739 12.8337C9.83504 12.9468 9.81203 13.0508 9.76977 13.1409C9.68619 13.3188 9.50823 13.4634 9.31946 13.5082C9.22508 13.5306 9.12318 13.5306 9.01847 13.5073L8.53153 13.3999ZM19.1803 18.3385C19.6223 18.3385 19.9805 18.7024 19.9805 19.1514C19.9805 19.6003 19.6216 19.9642 19.1803 19.9642C18.7384 19.9642 18.3802 19.6003 18.3802 19.1514C18.3802 18.7024 18.7384 18.3385 19.1803 18.3385ZM1.07108 14.0115C1.14809 15.8699 1.90315 17.7489 3.33156 19.3684C4.64588 20.8586 6.534 22.1299 8.99217 22.9613C11.703 23.8786 14.371 24.0699 16.547 23.611C18.7479 23.1464 20.4557 22.0168 21.222 20.2995C21.6934 19.2439 21.631 18.1883 21.2187 17.3129C20.9501 16.7429 20.5331 16.2506 20.019 15.8866C19.5062 15.5236 18.8934 15.2856 18.2332 15.2241C17.2805 15.1349 16.2324 15.4115 15.2468 16.2034L12.9929 3.59196L16.346 4.44392C16.5686 4.5002 16.7945 4.36235 16.8503 4.13624C16.9058 3.91013 16.7705 3.68021 16.5475 3.62392L2.33233 0.0128892C2.10976 -0.0438761 1.88342 0.0939823 1.82802 0.320566C1.77214 0.546673 1.90784 0.776119 2.13042 0.832884L5.39436 1.66194L2.90473 11.1828L0.699651 11.2987C0.56019 11.3063 0.443738 11.3631 0.349355 11.4465C0.206608 11.5715 0.0859293 11.7948 0.0572858 11.9827C0.0323989 12.1435 0.0619815 12.2594 0.138521 12.3925L1.07108 14.0115Z" fill="black"/>
</g>
<defs>
<clipPath id="clip0">
<rect width="21.6" height="24" fill="white"/>
</clipPath>
</defs>
</svg>
